<svg width="24" height="24" viewBox="0 0 24 24" fill="none" xmlns="http://www.w3.org/2000/svg">
<g opacity="0.75">
<path d="M12.3751 11.6248L12.3751 12.3748M11.6251 11.6248V12.3748M12.3751 4.62476L12.3751 5.37476M11.6251 4.62476V5.37476M12.3751 18.6248L12.3751 19.3748M11.6251 18.6248V19.3748M12 13C11.4477 13 11 12.5523 11 12C11 11.4477 11.4477 11 12 11C12.5523 11 13 11.4477 13 12C13 12.5523 12.5523 13 12 13ZM12 6C11.4477 6 11 5.55229 11 5C11 4.44772 11.4477 4 12 4C12.5523 4 13 4.44772 13 5C13 5.55229 12.5523 6 12 6ZM12 20C11.4477 20 11 19.5523 11 19C11 18.4477 11.4477 18 12 18C12.5523 18 13 18.4477 13 19C13 19.5523 12.5523 20 12 20Z" stroke="white" stroke-width="2" stroke-linecap="round"/>
</g>
</svg>
