<svg width="14" height="21" viewBox="0 0 14 21" fill="none" xmlns="http://www.w3.org/2000/svg">
<path d="M7 0.666667C4.05448 0.666667 1.66667 3.05448 1.66667 6C1.66667 8.94552 4.05448 11.3333 7 11.3333C9.94552 11.3333 12.3333 8.94552 12.3333 6C12.3333 3.05448 9.94552 0.666667 7 0.666667ZM6 20C6 20.5523 6.44772 21 7 21C7.55229 21 8 20.5523 8 20L6 20ZM6 6L6 20L8 20L8 6L6 6Z" fill="#EA3800"/>
<path d="M8.10957 19.3123C8.4553 19.7445 9.01492 20.1599 9.54937 20.5H7H4.61639C5.06622 20.1552 5.55039 19.7374 5.89043 19.3123L5.5131 19.0105L5.89044 19.3123C5.91311 19.284 5.93527 19.2549 5.95692 19.2252L5.55296 18.9306L5.95692 19.2252C6.14424 18.9684 6.5349 18.7922 7 18.7922C7.4651 18.7922 7.85576 18.9684 8.04308 19.2252C8.06473 19.2549 8.08689 19.284 8.10957 19.3123Z" stroke="#EA3800"/>
</svg>
